<svg xmlns="http://www.w3.org/2000/svg" width="1600" height="1200" viewBox="0 0 1600 1200">
  <defs>
    <style>
      @font-face {
        font-family: "Acme";
        src: url("Acme-Regular.ttf") format("truetype");
        font-weight: 400;
        font-style: normal;
      }
    </style>
    <filter id="shadow" x="-20%" y="-20%" width="140%" height="140%">
      <feDropShadow dx="0" dy="10" stdDeviation="14" flood-color="#162016" flood-opacity="0.12"/>
    </filter>
    <pattern id="checker" width="16" height="16" patternUnits="userSpaceOnUse">
      <rect width="16" height="16" fill="#ffffff"/>
      <rect width="8" height="8" fill="#edf1eb"/>
      <rect x="8" y="8" width="8" height="8" fill="#edf1eb"/>
    </pattern>

    <symbol id="icon-a" viewBox="0 0 256 256">
      <rect width="256" height="256" rx="58" fill="#daffc2"/>
      <text x="124" y="176" text-anchor="middle" font-family="Acme, Arial Rounded MT Bold, Segoe UI Black, Arial, sans-serif" font-size="154" font-weight="400" letter-spacing="0" fill="#142117">Ha</text>
    </symbol>
    <symbol id="icon-a-dark" viewBox="0 0 256 256">
      <rect width="256" height="256" rx="58" fill="#101711"/>
      <text x="124" y="176" text-anchor="middle" font-family="Acme, Arial Rounded MT Bold, Segoe UI Black, Arial, sans-serif" font-size="154" font-weight="400" letter-spacing="0" fill="#daffc2">Ha</text>
    </symbol>
    <symbol id="icon-a-tinted" viewBox="0 0 256 256">
      <rect width="256" height="256" rx="58" fill="#f4f4f4"/>
      <text x="124" y="176" text-anchor="middle" font-family="Acme, Arial Rounded MT Bold, Segoe UI Black, Arial, sans-serif" font-size="154" font-weight="400" letter-spacing="0" fill="#202020">Ha</text>
    </symbol>
    <symbol id="fg-a" viewBox="0 0 256 256">
      <text x="124" y="176" text-anchor="middle" font-family="Acme, Arial Rounded MT Bold, Segoe UI Black, Arial, sans-serif" font-size="154" font-weight="400" letter-spacing="0" fill="#142117">Ha</text>
    </symbol>
    <symbol id="mono-a" viewBox="0 0 256 256">
      <text x="124" y="176" text-anchor="middle" font-family="Acme, Arial Rounded MT Bold, Segoe UI Black, Arial, sans-serif" font-size="154" font-weight="400" letter-spacing="0" fill="#000000">Ha</text>
    </symbol>

    <symbol id="icon-b" viewBox="0 0 256 256">
      <rect width="256" height="256" rx="58" fill="#daffc2"/>
      <path d="M44 60h168a20 20 0 0 1 20 20v82a20 20 0 0 1-20 20h-61l-28 27-7-27H44a20 20 0 0 1-20-20V80a20 20 0 0 1 20-20Z" fill="#fbfff7" stroke="#132018" stroke-width="10" stroke-linejoin="round"/>
      <text x="128" y="154" text-anchor="middle" font-family="Cooper Black, Arial Rounded MT Bold, Segoe UI Black, Arial, sans-serif" font-size="98" font-weight="900" letter-spacing="0" fill="#132018">Ha</text>
    </symbol>
    <symbol id="icon-b-dark" viewBox="0 0 256 256">
      <rect width="256" height="256" rx="58" fill="#101711"/>
      <path d="M44 60h168a20 20 0 0 1 20 20v82a20 20 0 0 1-20 20h-61l-28 27-7-27H44a20 20 0 0 1-20-20V80a20 20 0 0 1 20-20Z" fill="#daffc2" stroke="#edfff0" stroke-width="8" stroke-linejoin="round"/>
      <text x="128" y="154" text-anchor="middle" font-family="Cooper Black, Arial Rounded MT Bold, Segoe UI Black, Arial, sans-serif" font-size="98" font-weight="900" letter-spacing="0" fill="#101711">Ha</text>
    </symbol>
    <symbol id="icon-b-tinted" viewBox="0 0 256 256">
      <rect width="256" height="256" rx="58" fill="#f4f4f4"/>
      <path d="M44 60h168a20 20 0 0 1 20 20v82a20 20 0 0 1-20 20h-61l-28 27-7-27H44a20 20 0 0 1-20-20V80a20 20 0 0 1 20-20Z" fill="#ffffff" stroke="#1c1c1c" stroke-width="10" stroke-linejoin="round"/>
      <text x="128" y="154" text-anchor="middle" font-family="Cooper Black, Arial Rounded MT Bold, Segoe UI Black, Arial, sans-serif" font-size="98" font-weight="900" letter-spacing="0" fill="#1c1c1c">Ha</text>
    </symbol>
    <symbol id="fg-b" viewBox="0 0 256 256">
      <path d="M44 60h168a20 20 0 0 1 20 20v82a20 20 0 0 1-20 20h-61l-28 27-7-27H44a20 20 0 0 1-20-20V80a20 20 0 0 1 20-20Z" fill="#fbfff7" stroke="#132018" stroke-width="10" stroke-linejoin="round"/>
      <text x="128" y="154" text-anchor="middle" font-family="Cooper Black, Arial Rounded MT Bold, Segoe UI Black, Arial, sans-serif" font-size="98" font-weight="900" letter-spacing="0" fill="#132018">Ha</text>
    </symbol>
    <symbol id="mono-b" viewBox="0 0 256 256">
      <path d="M44 60h168a20 20 0 0 1 20 20v82a20 20 0 0 1-20 20h-61l-28 27-7-27H44a20 20 0 0 1-20-20V80a20 20 0 0 1 20-20Z" fill="none" stroke="#000000" stroke-width="18" stroke-linejoin="round"/>
      <text x="128" y="154" text-anchor="middle" font-family="Cooper Black, Arial Rounded MT Bold, Segoe UI Black, Arial, sans-serif" font-size="98" font-weight="900" letter-spacing="0" fill="#000000">Ha</text>
    </symbol>

    <symbol id="icon-c" viewBox="0 0 256 256">
      <rect width="256" height="256" rx="58" fill="#daffc2"/>
      <path d="M184 50c25 18 34 50 21 75-22-6-43-25-51-52 9-12 19-20 30-23Z" fill="#78c969"/>
      <text x="84" y="165" text-anchor="middle" font-family="Georgia, Times New Roman, serif" font-size="132" font-weight="900" letter-spacing="0" fill="#132018">H</text>
      <text x="165" y="166" text-anchor="middle" font-family="Georgia, Times New Roman, serif" font-size="100" font-weight="900" letter-spacing="0" fill="#235f3d">a</text>
    </symbol>
    <symbol id="icon-c-dark" viewBox="0 0 256 256">
      <rect width="256" height="256" rx="58" fill="#101711"/>
      <path d="M184 50c25 18 34 50 21 75-22-6-43-25-51-52 9-12 19-20 30-23Z" fill="#78c969"/>
      <text x="84" y="165" text-anchor="middle" font-family="Georgia, Times New Roman, serif" font-size="132" font-weight="900" letter-spacing="0" fill="#daffc2">H</text>
      <text x="165" y="166" text-anchor="middle" font-family="Georgia, Times New Roman, serif" font-size="100" font-weight="900" letter-spacing="0" fill="#98f18a">a</text>
    </symbol>
    <symbol id="icon-c-tinted" viewBox="0 0 256 256">
      <rect width="256" height="256" rx="58" fill="#f4f4f4"/>
      <path d="M184 50c25 18 34 50 21 75-22-6-43-25-51-52 9-12 19-20 30-23Z" fill="#a6a6a6"/>
      <text x="84" y="165" text-anchor="middle" font-family="Georgia, Times New Roman, serif" font-size="132" font-weight="900" letter-spacing="0" fill="#1c1c1c">H</text>
      <text x="165" y="166" text-anchor="middle" font-family="Georgia, Times New Roman, serif" font-size="100" font-weight="900" letter-spacing="0" fill="#656565">a</text>
    </symbol>
    <symbol id="fg-c" viewBox="0 0 256 256">
      <path d="M184 50c25 18 34 50 21 75-22-6-43-25-51-52 9-12 19-20 30-23Z" fill="#78c969"/>
      <text x="84" y="165" text-anchor="middle" font-family="Georgia, Times New Roman, serif" font-size="132" font-weight="900" letter-spacing="0" fill="#132018">H</text>
      <text x="165" y="166" text-anchor="middle" font-family="Georgia, Times New Roman, serif" font-size="100" font-weight="900" letter-spacing="0" fill="#235f3d">a</text>
    </symbol>
    <symbol id="mono-c" viewBox="0 0 256 256">
      <path d="M184 50c25 18 34 50 21 75-22-6-43-25-51-52 9-12 19-20 30-23Z" fill="#000000"/>
      <text x="84" y="165" text-anchor="middle" font-family="Georgia, Times New Roman, serif" font-size="132" font-weight="900" letter-spacing="0" fill="#000000">H</text>
      <text x="165" y="166" text-anchor="middle" font-family="Georgia, Times New Roman, serif" font-size="100" font-weight="900" letter-spacing="0" fill="#000000">a</text>
    </symbol>

    <symbol id="icon-d" viewBox="0 0 256 256">
      <rect width="256" height="256" rx="48" fill="#daffc2"/>
      <text x="128" y="160" text-anchor="middle" font-family="Segoe UI Black, Arial Black, Arial, sans-serif" font-size="116" font-weight="900" letter-spacing="0" fill="#132018">Ha</text>
      <rect x="54" y="176" width="148" height="14" rx="7" fill="#4ea85d"/>
    </symbol>
    <symbol id="icon-d-dark" viewBox="0 0 256 256">
      <rect width="256" height="256" rx="48" fill="#101711"/>
      <text x="128" y="160" text-anchor="middle" font-family="Segoe UI Black, Arial Black, Arial, sans-serif" font-size="116" font-weight="900" letter-spacing="0" fill="#daffc2">Ha</text>
      <rect x="54" y="176" width="148" height="14" rx="7" fill="#4ea85d"/>
    </symbol>
    <symbol id="icon-d-tinted" viewBox="0 0 256 256">
      <rect width="256" height="256" rx="48" fill="#f4f4f4"/>
      <text x="128" y="160" text-anchor="middle" font-family="Segoe UI Black, Arial Black, Arial, sans-serif" font-size="116" font-weight="900" letter-spacing="0" fill="#1c1c1c">Ha</text>
      <rect x="54" y="176" width="148" height="14" rx="7" fill="#8a8a8a"/>
    </symbol>
    <symbol id="fg-d" viewBox="0 0 256 256">
      <text x="128" y="160" text-anchor="middle" font-family="Segoe UI Black, Arial Black, Arial, sans-serif" font-size="116" font-weight="900" letter-spacing="0" fill="#132018">Ha</text>
      <rect x="54" y="176" width="148" height="14" rx="7" fill="#4ea85d"/>
    </symbol>
    <symbol id="mono-d" viewBox="0 0 256 256">
      <text x="128" y="160" text-anchor="middle" font-family="Segoe UI Black, Arial Black, Arial, sans-serif" font-size="116" font-weight="900" letter-spacing="0" fill="#000000">Ha</text>
      <rect x="54" y="176" width="148" height="14" rx="7" fill="#000000"/>
    </symbol>
  </defs>

  <rect width="1600" height="1200" fill="#f6f8f4"/>
  <text x="72" y="76" font-family="Segoe UI, Arial, sans-serif" font-size="40" font-weight="800" letter-spacing="0" fill="#142117">Ha icon direction board</text>
  <text x="72" y="116" font-family="Segoe UI, Arial, sans-serif" font-size="20" letter-spacing="0" fill="#566255">Base background #daffc2. Each direction previews app shape, Android layers, iOS variants, and tiny-size readability.</text>

  <g transform="translate(72 160)">
    <rect class="card" width="704" height="458" rx="20" fill="#ffffff" stroke="#dbe6d6" filter="url(#shadow)"/>
    <text x="28" y="44" font-family="Segoe UI, Arial, sans-serif" font-size="26" font-weight="800" letter-spacing="0" fill="#142117">A. Bold Reader</text>
    <text x="28" y="75" font-family="Segoe UI, Arial, sans-serif" font-size="16" letter-spacing="0" fill="#667463">Strong wordmark, clearest generic app icon feel.</text>
    <use href="#icon-a" x="28" y="102" width="186" height="186"/>
    <text x="250" y="124" font-family="Segoe UI, Arial, sans-serif" font-size="16" font-weight="700" fill="#142117">Android adaptive</text>
    <rect x="250" y="142" width="58" height="58" rx="14" fill="#daffc2"/>
    <text x="258" y="223" font-family="Segoe UI, Arial, sans-serif" font-size="12" fill="#667463">background</text>
    <rect x="330" y="142" width="58" height="58" rx="14" fill="url(#checker)" stroke="#dce5d8"/>
    <use href="#fg-a" x="334" y="146" width="50" height="50"/>
    <text x="347" y="223" font-family="Segoe UI, Arial, sans-serif" font-size="12" fill="#667463">foreground</text>
    <rect x="410" y="142" width="58" height="58" rx="14" fill="url(#checker)" stroke="#dce5d8"/>
    <use href="#mono-a" x="414" y="146" width="50" height="50"/>
    <text x="414" y="223" font-family="Segoe UI, Arial, sans-serif" font-size="12" fill="#667463">mono</text>
    <text x="250" y="270" font-family="Segoe UI, Arial, sans-serif" font-size="16" font-weight="700" fill="#142117">iOS</text>
    <use href="#icon-a" x="250" y="288" width="58" height="58"/>
    <use href="#icon-a-dark" x="330" y="288" width="58" height="58"/>
    <use href="#icon-a-tinted" x="410" y="288" width="58" height="58"/>
    <text x="258" y="369" font-family="Segoe UI, Arial, sans-serif" font-size="12" fill="#667463">Light</text>
    <text x="338" y="369" font-family="Segoe UI, Arial, sans-serif" font-size="12" fill="#667463">Dark</text>
    <text x="416" y="369" font-family="Segoe UI, Arial, sans-serif" font-size="12" fill="#667463">Tinted</text>
    <text x="520" y="124" font-family="Segoe UI, Arial, sans-serif" font-size="16" font-weight="700" fill="#142117">small</text>
    <rect x="520" y="142" width="48" height="48" rx="12" fill="#eef3eb"/>
    <use href="#icon-a" x="536" y="158" width="16" height="16"/>
    <rect x="584" y="142" width="48" height="48" rx="12" fill="#eef3eb"/>
    <use href="#icon-a" x="596" y="154" width="24" height="24"/>
    <rect x="648" y="142" width="48" height="48" rx="12" fill="#eef3eb"/>
    <use href="#icon-a" x="656" y="150" width="32" height="32"/>
    <text x="531" y="211" font-family="Segoe UI, Arial, sans-serif" font-size="12" fill="#667463">16</text>
    <text x="595" y="211" font-family="Segoe UI, Arial, sans-serif" font-size="12" fill="#667463">24</text>
    <text x="659" y="211" font-family="Segoe UI, Arial, sans-serif" font-size="12" fill="#667463">32</text>
  </g>

  <g transform="translate(824 160)">
    <rect width="704" height="458" rx="20" fill="#ffffff" stroke="#dbe6d6" filter="url(#shadow)"/>
    <text x="28" y="44" font-family="Segoe UI, Arial, sans-serif" font-size="26" font-weight="800" letter-spacing="0" fill="#142117">B. Comic Bubble</text>
    <text x="28" y="75" font-family="Segoe UI, Arial, sans-serif" font-size="16" letter-spacing="0" fill="#667463">Speech-bubble motif, more comic-specific personality.</text>
    <use href="#icon-b" x="28" y="102" width="186" height="186"/>
    <text x="250" y="124" font-family="Segoe UI, Arial, sans-serif" font-size="16" font-weight="700" fill="#142117">Android adaptive</text>
    <rect x="250" y="142" width="58" height="58" rx="14" fill="#daffc2"/>
    <text x="258" y="223" font-family="Segoe UI, Arial, sans-serif" font-size="12" fill="#667463">background</text>
    <rect x="330" y="142" width="58" height="58" rx="14" fill="url(#checker)" stroke="#dce5d8"/>
    <use href="#fg-b" x="334" y="146" width="50" height="50"/>
    <text x="347" y="223" font-family="Segoe UI, Arial, sans-serif" font-size="12" fill="#667463">foreground</text>
    <rect x="410" y="142" width="58" height="58" rx="14" fill="url(#checker)" stroke="#dce5d8"/>
    <use href="#mono-b" x="414" y="146" width="50" height="50"/>
    <text x="414" y="223" font-family="Segoe UI, Arial, sans-serif" font-size="12" fill="#667463">mono</text>
    <text x="250" y="270" font-family="Segoe UI, Arial, sans-serif" font-size="16" font-weight="700" fill="#142117">iOS</text>
    <use href="#icon-b" x="250" y="288" width="58" height="58"/>
    <use href="#icon-b-dark" x="330" y="288" width="58" height="58"/>
    <use href="#icon-b-tinted" x="410" y="288" width="58" height="58"/>
    <text x="258" y="369" font-family="Segoe UI, Arial, sans-serif" font-size="12" fill="#667463">Light</text>
    <text x="338" y="369" font-family="Segoe UI, Arial, sans-serif" font-size="12" fill="#667463">Dark</text>
    <text x="416" y="369" font-family="Segoe UI, Arial, sans-serif" font-size="12" fill="#667463">Tinted</text>
    <text x="520" y="124" font-family="Segoe UI, Arial, sans-serif" font-size="16" font-weight="700" fill="#142117">small</text>
    <rect x="520" y="142" width="48" height="48" rx="12" fill="#eef3eb"/>
    <use href="#icon-b" x="536" y="158" width="16" height="16"/>
    <rect x="584" y="142" width="48" height="48" rx="12" fill="#eef3eb"/>
    <use href="#icon-b" x="596" y="154" width="24" height="24"/>
    <rect x="648" y="142" width="48" height="48" rx="12" fill="#eef3eb"/>
    <use href="#icon-b" x="656" y="150" width="32" height="32"/>
    <text x="531" y="211" font-family="Segoe UI, Arial, sans-serif" font-size="12" fill="#667463">16</text>
    <text x="595" y="211" font-family="Segoe UI, Arial, sans-serif" font-size="12" fill="#667463">24</text>
    <text x="659" y="211" font-family="Segoe UI, Arial, sans-serif" font-size="12" fill="#667463">32</text>
  </g>

  <g transform="translate(72 682)">
    <rect width="704" height="458" rx="20" fill="#ffffff" stroke="#dbe6d6" filter="url(#shadow)"/>
    <text x="28" y="44" font-family="Segoe UI, Arial, sans-serif" font-size="26" font-weight="800" letter-spacing="0" fill="#142117">C. Serif Leaf</text>
    <text x="28" y="75" font-family="Segoe UI, Arial, sans-serif" font-size="16" letter-spacing="0" fill="#667463">Editorial and softer; good for reading/library feel.</text>
    <use href="#icon-c" x="28" y="102" width="186" height="186"/>
    <text x="250" y="124" font-family="Segoe UI, Arial, sans-serif" font-size="16" font-weight="700" fill="#142117">Android adaptive</text>
    <rect x="250" y="142" width="58" height="58" rx="14" fill="#daffc2"/>
    <text x="258" y="223" font-family="Segoe UI, Arial, sans-serif" font-size="12" fill="#667463">background</text>
    <rect x="330" y="142" width="58" height="58" rx="14" fill="url(#checker)" stroke="#dce5d8"/>
    <use href="#fg-c" x="334" y="146" width="50" height="50"/>
    <text x="347" y="223" font-family="Segoe UI, Arial, sans-serif" font-size="12" fill="#667463">foreground</text>
    <rect x="410" y="142" width="58" height="58" rx="14" fill="url(#checker)" stroke="#dce5d8"/>
    <use href="#mono-c" x="414" y="146" width="50" height="50"/>
    <text x="414" y="223" font-family="Segoe UI, Arial, sans-serif" font-size="12" fill="#667463">mono</text>
    <text x="250" y="270" font-family="Segoe UI, Arial, sans-serif" font-size="16" font-weight="700" fill="#142117">iOS</text>
    <use href="#icon-c" x="250" y="288" width="58" height="58"/>
    <use href="#icon-c-dark" x="330" y="288" width="58" height="58"/>
    <use href="#icon-c-tinted" x="410" y="288" width="58" height="58"/>
    <text x="258" y="369" font-family="Segoe UI, Arial, sans-serif" font-size="12" fill="#667463">Light</text>
    <text x="338" y="369" font-family="Segoe UI, Arial, sans-serif" font-size="12" fill="#667463">Dark</text>
    <text x="416" y="369" font-family="Segoe UI, Arial, sans-serif" font-size="12" fill="#667463">Tinted</text>
    <text x="520" y="124" font-family="Segoe UI, Arial, sans-serif" font-size="16" font-weight="700" fill="#142117">small</text>
    <rect x="520" y="142" width="48" height="48" rx="12" fill="#eef3eb"/>
    <use href="#icon-c" x="536" y="158" width="16" height="16"/>
    <rect x="584" y="142" width="48" height="48" rx="12" fill="#eef3eb"/>
    <use href="#icon-c" x="596" y="154" width="24" height="24"/>
    <rect x="648" y="142" width="48" height="48" rx="12" fill="#eef3eb"/>
    <use href="#icon-c" x="656" y="150" width="32" height="32"/>
    <text x="531" y="211" font-family="Segoe UI, Arial, sans-serif" font-size="12" fill="#667463">16</text>
    <text x="595" y="211" font-family="Segoe UI, Arial, sans-serif" font-size="12" fill="#667463">24</text>
    <text x="659" y="211" font-family="Segoe UI, Arial, sans-serif" font-size="12" fill="#667463">32</text>
  </g>

  <g transform="translate(824 682)">
    <rect width="704" height="458" rx="20" fill="#ffffff" stroke="#dbe6d6" filter="url(#shadow)"/>
    <text x="28" y="44" font-family="Segoe UI, Arial, sans-serif" font-size="26" font-weight="800" letter-spacing="0" fill="#142117">D. Pixel Safe</text>
    <text x="28" y="75" font-family="Segoe UI, Arial, sans-serif" font-size="16" letter-spacing="0" fill="#667463">Built from chunky forms for Windows/Linux tray-size clarity.</text>
    <use href="#icon-d" x="28" y="102" width="186" height="186"/>
    <text x="250" y="124" font-family="Segoe UI, Arial, sans-serif" font-size="16" font-weight="700" fill="#142117">Android adaptive</text>
    <rect x="250" y="142" width="58" height="58" rx="14" fill="#daffc2"/>
    <text x="258" y="223" font-family="Segoe UI, Arial, sans-serif" font-size="12" fill="#667463">background</text>
    <rect x="330" y="142" width="58" height="58" rx="14" fill="url(#checker)" stroke="#dce5d8"/>
    <use href="#fg-d" x="334" y="146" width="50" height="50"/>
    <text x="347" y="223" font-family="Segoe UI, Arial, sans-serif" font-size="12" fill="#667463">foreground</text>
    <rect x="410" y="142" width="58" height="58" rx="14" fill="url(#checker)" stroke="#dce5d8"/>
    <use href="#mono-d" x="414" y="146" width="50" height="50"/>
    <text x="414" y="223" font-family="Segoe UI, Arial, sans-serif" font-size="12" fill="#667463">mono</text>
    <text x="250" y="270" font-family="Segoe UI, Arial, sans-serif" font-size="16" font-weight="700" fill="#142117">iOS</text>
    <use href="#icon-d" x="250" y="288" width="58" height="58"/>
    <use href="#icon-d-dark" x="330" y="288" width="58" height="58"/>
    <use href="#icon-d-tinted" x="410" y="288" width="58" height="58"/>
    <text x="258" y="369" font-family="Segoe UI, Arial, sans-serif" font-size="12" fill="#667463">Light</text>
    <text x="338" y="369" font-family="Segoe UI, Arial, sans-serif" font-size="12" fill="#667463">Dark</text>
    <text x="416" y="369" font-family="Segoe UI, Arial, sans-serif" font-size="12" fill="#667463">Tinted</text>
    <text x="520" y="124" font-family="Segoe UI, Arial, sans-serif" font-size="16" font-weight="700" fill="#142117">small</text>
    <rect x="520" y="142" width="48" height="48" rx="12" fill="#eef3eb"/>
    <use href="#icon-d" x="536" y="158" width="16" height="16"/>
    <rect x="584" y="142" width="48" height="48" rx="12" fill="#eef3eb"/>
    <use href="#icon-d" x="596" y="154" width="24" height="24"/>
    <rect x="648" y="142" width="48" height="48" rx="12" fill="#eef3eb"/>
    <use href="#icon-d" x="656" y="150" width="32" height="32"/>
    <text x="531" y="211" font-family="Segoe UI, Arial, sans-serif" font-size="12" fill="#667463">16</text>
    <text x="595" y="211" font-family="Segoe UI, Arial, sans-serif" font-size="12" fill="#667463">24</text>
    <text x="659" y="211" font-family="Segoe UI, Arial, sans-serif" font-size="12" fill="#667463">32</text>
  </g>
</svg>
